<svg width="77" height="58" viewBox="0 0 77 58" fill="none" xmlns="http://www.w3.org/2000/svg">
<path d="M0.948975 56.354H75.063V8.86297C75.0582 6.76603 74.2233 4.75629 72.7408 3.27324C71.2583 1.79019 69.2489 0.954521 67.152 0.948975H8.36697C6.39989 0.951622 4.51418 1.73442 3.12352 3.12564C1.73286 4.51686 0.950827 6.40289 0.948975 8.36997V56.354Z" fill="#F4FCFF"/>
<path d="M75.792 57.083H0.218994V8.36899C0.221376 6.20821 1.0808 4.13661 2.6087 2.6087C4.13661 1.0808 6.20821 0.221376 8.36899 0.218994H67.151C69.4424 0.221906 71.639 1.13364 73.2589 2.75416C74.8789 4.37468 75.7899 6.57163 75.792 8.86299V57.083ZM1.67799 55.624H74.333V8.86299C74.3314 6.95869 73.5744 5.13278 72.2282 3.78595C70.8819 2.43912 69.0563 1.68138 67.152 1.67899H8.36899C6.59534 1.68137 4.89499 2.38694 3.64073 3.64102C2.38646 4.89509 1.68064 6.59534 1.67799 8.36899V55.624Z" fill="#1078FF"/>
<path d="M75.064 57.301H0.950001C0.825208 57.3011 0.701614 57.2766 0.586296 57.2289C0.470977 57.1812 0.366198 57.1113 0.277956 57.023C0.189714 56.9348 0.119742 56.83 0.072047 56.7147C0.0243516 56.5994 -0.000131041 56.4758 5.27475e-07 56.351V8.37198C0.001853 6.15294 0.883978 4.02527 2.4528 2.45589C4.02161 0.886512 6.14896 0.00362444 8.368 0.000976563L67.153 0.000976562C69.5024 0.00388891 71.7548 0.938697 73.4158 2.60029C75.0768 4.26188 76.0109 6.51453 76.013 8.86398V56.355C76.0131 56.4797 75.9887 56.6032 75.941 56.7184C75.8934 56.8337 75.8235 56.9384 75.7354 57.0267C75.6473 57.1149 75.5426 57.1849 75.4274 57.2326C75.3122 57.2804 75.1887 57.305 75.064 57.305M1.9 55.401H74.114V8.86398C74.1121 7.01819 73.3782 5.2485 72.0732 3.94314C70.7683 2.63779 68.9988 1.90336 67.153 1.90098H8.368C6.65279 1.90336 5.00856 2.58598 3.79601 3.7991C2.58345 5.01222 1.90159 6.65677 1.9 8.37198V55.401Z" fill="#1078FF"/>
<path d="M36.9251 9.16992C35.3547 9.16992 33.8195 9.63562 32.5138 10.5081C31.208 11.3806 30.1903 12.6207 29.5894 14.0716C28.9885 15.5226 28.8313 17.1191 29.1377 18.6593C29.4442 20.1995 30.2005 21.6143 31.311 22.7247C32.4216 23.8351 33.8364 24.5912 35.3767 24.8975C36.917 25.2037 38.5135 25.0464 39.9643 24.4452C41.4151 23.8441 42.6551 22.8263 43.5275 21.5204C44.3998 20.2146 44.8653 18.6793 44.8651 17.1089C44.8643 15.0034 44.0275 12.9844 42.5386 11.4957C41.0497 10.007 39.0306 9.17045 36.9251 9.16992Z" fill="#B9EEFF"/>
<path d="M36.9239 25.7799C35.2092 25.7799 33.533 25.2715 32.1072 24.3189C30.6815 23.3662 29.5702 22.0122 28.914 20.428C28.2577 18.8439 28.086 17.1007 28.4204 15.4189C28.7549 13.7371 29.5805 12.1922 30.7929 10.9797C32.0054 9.76712 33.5501 8.94131 35.2319 8.60666C36.9136 8.27201 38.6568 8.44356 40.2411 9.09962C41.8253 9.75568 43.1795 10.8668 44.1323 12.2924C45.0851 13.7181 45.5937 15.3942 45.5939 17.1089C45.5926 19.4081 44.6787 21.6126 43.0531 23.2385C41.4275 24.8643 39.223 25.7784 36.9239 25.7799ZM36.9239 9.89995C35.4976 9.89995 34.1034 10.3229 32.9175 11.1154C31.7316 11.9078 30.8073 13.0341 30.2616 14.3519C29.7159 15.6696 29.5732 17.1196 29.8516 18.5185C30.13 19.9173 30.817 21.2022 31.8257 22.2106C32.8343 23.219 34.1194 23.9056 35.5183 24.1836C36.9173 24.4616 38.3672 24.3186 39.6848 23.7725C41.0024 23.2264 42.1285 22.3018 42.9206 21.1157C43.7127 19.9296 44.1353 18.5352 44.1349 17.1089C44.1336 15.1971 43.3734 13.3639 42.0213 12.0122C40.6692 10.6604 38.8358 9.90074 36.9239 9.89995Z" fill="#1078FF"/>
<path d="M36.9271 26C35.1688 26 33.45 25.4786 31.9881 24.5017C30.5261 23.5249 29.3867 22.1365 28.7138 20.512C28.041 18.8876 27.8649 17.1001 28.2079 15.3756C28.551 13.6511 29.3976 12.0671 30.6409 10.8238C31.8842 9.58051 33.4683 8.73382 35.1928 8.39079C36.9173 8.04777 38.7047 8.22382 40.3292 8.89669C41.9536 9.56955 43.342 10.709 44.3189 12.171C45.2957 13.6329 45.8171 15.3517 45.8171 17.11C45.8145 19.4669 44.877 21.7266 43.2104 23.3932C41.5437 25.0599 39.2841 25.9973 36.9271 26ZM36.9271 10.12C35.5444 10.1202 34.1928 10.5304 33.0433 11.2987C31.8937 12.0671 30.9978 13.159 30.4689 14.4366C29.9399 15.7141 29.8017 17.1197 30.0716 18.4758C30.3416 19.8319 31.0076 21.0775 31.9854 22.0551C32.9633 23.0326 34.2091 23.6983 35.5652 23.9678C36.9214 24.2374 38.327 24.0987 39.6044 23.5694C40.8817 23.0401 41.9735 22.1439 42.7415 20.9941C43.5095 19.8444 43.9193 18.4927 43.9191 17.11C43.9183 15.256 43.1813 13.4782 41.8702 12.1675C40.5591 10.8567 38.7811 10.1202 36.9271 10.12Z" fill="#1078FF"/>
<path d="M27.857 49.002V42.554V49.002ZM51.705 49.002V37.226C51.7013 34.9837 50.8091 32.8342 49.2238 31.2483C47.6385 29.6625 45.4893 28.7695 43.247 28.765H31.033C28.7913 28.7721 26.6434 29.6659 25.0584 31.2511C23.4733 32.8363 22.5799 34.9843 22.573 37.226V49.002M46.421 42.554V49.001V42.554Z" fill="#B9EEFF"/>
<path d="M52.434 49.0019H50.975V37.2249C50.9732 35.1754 50.1584 33.2102 48.7094 31.7607C47.2604 30.3111 45.2956 29.4956 43.246 29.4929H31.032C28.9824 29.4956 27.0174 30.3111 25.5683 31.7606C24.1192 33.2101 23.3041 35.1753 23.302 37.2249V49.0019H21.843V37.2249C21.8454 34.7884 22.8142 32.4523 24.5369 30.7293C26.2596 29.0062 28.5955 28.0368 31.032 28.0339H43.246C45.6824 28.0371 48.018 29.0066 49.7405 30.7296C51.4629 32.4527 52.4316 34.7886 52.434 37.2249V49.0019ZM47.151 49.0019H45.691V42.5549H47.15L47.151 49.0019ZM28.587 49.0019H27.127V42.5549H28.586L28.587 49.0019Z" fill="#1078FF"/>
<path d="M51.7061 49.956C51.5814 49.9561 51.4579 49.9317 51.3426 49.8841C51.2274 49.8364 51.1226 49.7666 51.0344 49.6784C50.9462 49.5903 50.8762 49.4856 50.8284 49.3704C50.7807 49.2552 50.7561 49.1317 50.7561 49.007V37.227C50.7548 35.2359 49.9634 33.3267 48.5558 31.9185C47.1481 30.5102 45.2392 29.7181 43.2481 29.716H31.0321C29.0407 29.7181 27.1315 30.5101 25.7234 31.9183C24.3152 33.3264 23.5232 35.2356 23.5211 37.227V49.004C23.5211 49.256 23.421 49.4976 23.2428 49.6758C23.0647 49.8539 22.8231 49.954 22.5711 49.954C22.3191 49.954 22.0775 49.8539 21.8993 49.6758C21.7212 49.4976 21.6211 49.256 21.6211 49.004V37.227C21.6237 34.7325 22.6157 32.3409 24.3794 30.5768C26.1431 28.8127 28.5346 27.8202 31.0291 27.817H43.2451C45.7395 27.8202 48.1308 28.8127 49.8944 30.5768C51.658 32.3409 52.6497 34.7326 52.6521 37.227V49.004C52.6521 49.2557 52.5521 49.4971 52.3741 49.6751C52.1962 49.853 51.9548 49.953 51.7031 49.953M46.4201 49.953C46.2954 49.9531 46.1719 49.9287 46.0566 49.8811C45.9414 49.8334 45.8366 49.7636 45.7484 49.6754C45.6602 49.5873 45.5902 49.4826 45.5424 49.3674C45.4947 49.2522 45.4701 49.1287 45.4701 49.004V42.556C45.4701 42.3041 45.5702 42.0624 45.7483 41.8843C45.9265 41.7061 46.1681 41.606 46.4201 41.606C46.672 41.606 46.9137 41.7061 47.0918 41.8843C47.27 42.0624 47.3701 42.3041 47.3701 42.556V49.003C47.3701 49.2547 47.2701 49.4961 47.0921 49.6741C46.9142 49.852 46.6728 49.952 46.4211 49.952M27.8571 49.952C27.6054 49.952 27.364 49.852 27.186 49.6741C27.0081 49.4961 26.9081 49.2547 26.9081 49.003V42.556C26.9081 42.3041 27.0082 42.0624 27.1863 41.8843C27.3645 41.7061 27.6061 41.606 27.8581 41.606C28.11 41.606 28.3517 41.7061 28.5298 41.8843C28.708 42.0624 28.8081 42.3041 28.8081 42.556V49.003C28.8081 49.2547 28.7081 49.4961 28.5301 49.6741C28.3522 49.852 28.1108 49.952 27.8591 49.952" fill="#1078FF"/>
<path d="M37.1341 45.5569C36.8824 45.5569 36.641 45.457 36.4631 45.279C36.2851 45.101 36.1851 44.8596 36.1851 44.608V33.751H34.1331C33.8811 33.751 33.6395 33.6509 33.4614 33.4727C33.2832 33.2945 33.1831 33.0529 33.1831 32.801C33.1831 32.549 33.2832 32.3074 33.4614 32.1292C33.6395 31.951 33.8811 31.851 34.1331 31.851H40.1541C40.4061 31.851 40.6477 31.951 40.8259 32.1292C41.004 32.3074 41.1041 32.549 41.1041 32.801C41.1041 33.0529 41.004 33.2945 40.8259 33.4727C40.6477 33.6509 40.4061 33.751 40.1541 33.751H38.0831V44.608C38.0831 44.7326 38.0586 44.856 38.0109 44.9711C37.9632 45.0863 37.8933 45.1909 37.8051 45.279C37.717 45.3671 37.6124 45.437 37.4973 45.4847C37.3821 45.5324 37.2587 45.5569 37.1341 45.5569Z" fill="#1078FF"/>
<path d="M19.45 13.876H0.949023C0.697068 13.876 0.455432 13.7759 0.277272 13.5977C0.0991124 13.4195 -0.000976562 13.1779 -0.000976562 12.926C-0.000976562 12.674 0.0991124 12.4324 0.277272 12.2542C0.455432 12.076 0.697068 11.976 0.949023 11.976H19.449C19.701 11.976 19.9426 12.076 20.1208 12.2542C20.2989 12.4324 20.399 12.674 20.399 12.926C20.399 13.1779 20.2989 13.4195 20.1208 13.5977C19.9426 13.7759 19.701 13.876 19.449 13.876" fill="#1078FF"/>
<path d="M74.669 13.876H50.045C49.793 13.876 49.5514 13.7759 49.3732 13.5977C49.1951 13.4195 49.095 13.1779 49.095 12.926C49.095 12.674 49.1951 12.4324 49.3732 12.2542C49.5514 12.076 49.793 11.976 50.045 11.976H74.669C74.9209 11.976 75.1626 12.076 75.3407 12.2542C75.5189 12.4324 75.619 12.674 75.619 12.926C75.619 13.1779 75.5189 13.4195 75.3407 13.5977C75.1626 13.7759 74.9209 13.876 74.669 13.876Z" fill="#1078FF"/>
</svg>
