<svg width="77" height="58" viewBox="0 0 77 58" fill="none" xmlns="http://www.w3.org/2000/svg">
<path d="M0.958008 56.893H75.781V8.94801C75.7763 6.83091 74.9333 4.80183 73.4366 3.30453C71.9399 1.80723 69.9111 0.963554 67.794 0.958008H8.44701C6.46118 0.960919 4.55756 1.75128 3.15364 3.15576C1.74973 4.56024 0.960124 6.46418 0.958008 8.45001V56.893Z" fill="#F4FCFF"/>
<path d="M76.5169 57.6299H0.220947V8.44992C0.223328 6.26897 1.09056 4.17799 2.63244 2.63554C4.17433 1.09309 6.265 0.2251 8.44595 0.221924H67.7929C70.106 0.2251 72.3233 1.14556 73.9586 2.7814C75.5939 4.41724 76.5136 6.6349 76.5159 8.94792L76.5169 57.6299ZM1.69395 56.1569H75.0439V8.94792C75.0424 7.02532 74.2781 5.18186 72.9189 3.82209C71.5597 2.46232 69.7166 1.69731 67.7939 1.69492H8.44595C6.65542 1.69731 4.93895 2.40985 3.67313 3.67623C2.40732 4.94261 1.69553 6.65939 1.69395 8.44992V56.1569Z" fill="#1078FF"/>
<path d="M75.782 57.853H0.959001C0.833026 57.8531 0.708262 57.8284 0.591852 57.7802C0.475441 57.7321 0.369669 57.6615 0.280592 57.5724C0.191514 57.4833 0.12088 57.3775 0.0727321 57.2611C0.0245844 57.1447 -0.000131044 57.02 5.22514e-07 56.894V8.45198C0.00185304 6.21172 0.892407 4.06371 2.47623 2.47932C4.06005 0.894941 6.20775 0.00362448 8.448 0.000976563L67.795 0.000976562C70.1666 0.00415309 72.4402 0.947896 74.1169 2.62518C75.7936 4.30247 76.7366 6.57633 76.739 8.94798V56.894C76.7391 57.0199 76.7145 57.1446 76.6664 57.2609C76.6183 57.3772 76.5477 57.483 76.4588 57.572C76.3698 57.6611 76.2641 57.7318 76.1478 57.78C76.0315 57.8282 75.9079 57.853 75.782 57.853ZM1.917 55.936H74.823V8.94798C74.8214 7.08425 74.0806 5.29726 72.763 3.97912C71.4454 2.66098 69.6587 1.91936 67.795 1.91698H8.448C6.71583 1.9191 5.05527 2.60841 3.83081 3.83362C2.60636 5.05882 1.91806 6.7198 1.917 8.45198V55.936Z" fill="#1078FF"/>
<path d="M19.636 14.0089H0.958012C0.703802 14.0089 0.460003 13.9079 0.28025 13.7282C0.100496 13.5484 -0.000488281 13.3046 -0.000488281 13.0504C-0.000488281 12.7962 0.100496 12.5524 0.28025 12.3727C0.460003 12.1929 0.703802 12.0919 0.958012 12.0919H19.636C19.8902 12.0919 20.134 12.1929 20.3138 12.3727C20.4935 12.5524 20.5945 12.7962 20.5945 13.0504C20.5945 13.3046 20.4935 13.5484 20.3138 13.7282C20.134 13.9079 19.8902 14.0089 19.636 14.0089Z" fill="#1078FF"/>
<path d="M75.384 14.0089H50.523C50.2687 14.0089 50.0249 13.9079 49.8452 13.7282C49.6654 13.5484 49.5645 13.3046 49.5645 13.0504C49.5645 12.7962 49.6654 12.5524 49.8452 12.3727C50.0249 12.1929 50.2687 12.0919 50.523 12.0919H75.383C75.6372 12.0919 75.881 12.1929 76.0607 12.3727C76.2405 12.5524 76.3415 12.7962 76.3415 13.0504C76.3415 13.3046 76.2405 13.5484 76.0607 13.7282C75.881 13.9079 75.6382 14.0089 75.384 14.0089Z" fill="#1078FF"/>
<path d="M67.3348 28.9657H7.92993V21.126H67.3348V28.9657Z" fill="white"/>
<path d="M8.42993 21.626V28.4657H66.8348V21.626H8.42993ZM7.42993 20.626H67.8348V29.4657H7.42993V20.626Z" fill="#1078FF"/>
<path d="M21.427 37.569H65.626" stroke="#1078FF"/>
<path d="M21.427 41.989H65.626" stroke="#1078FF"/>
<path d="M21.427 46.4089H65.626" stroke="#1078FF"/>
<path d="M21.427 50.829H65.626" stroke="#1078FF"/>
</svg>
