<?xml version="1.0" encoding="UTF-8"?>
<svg version="1.1" xmlns="http://www.w3.org/2000/svg" width="1536" height="1024">
<path d="M0 0 C506.88 0 1013.76 0 1536 0 C1536 337.92 1536 675.84 1536 1024 C1029.12 1024 522.24 1024 0 1024 C0 686.08 0 348.16 0 0 Z " fill="#000000" transform="translate(0,0)"/>
<path d="M0 0 C85.23722628 0 85.23722628 0 101 14 C103.33485792 16.50475402 105.22652064 19.07491066 107 22 C107.37640625 22.61359375 107.7528125 23.2271875 108.140625 23.859375 C113.14927124 32.9048406 114.61559007 42.79659457 114 53 C113.9690625 53.78246094 113.938125 54.56492187 113.90625 55.37109375 C113.31402422 63.91395058 109.3429782 72.33036395 104 79 C103.34 79 102.68 79 102 79 C101.505 80.485 101.505 80.485 101 82 C98.70703125 83.7890625 98.70703125 83.7890625 95.8125 85.625 C94.87019531 86.23601562 93.92789063 86.84703125 92.95703125 87.4765625 C89.89747738 89.05281879 87.40217998 89.62702027 84 90 C84.6084375 90.93714844 85.216875 91.87429688 85.84375 92.83984375 C92.28784041 102.77699251 98.68290442 112.74485269 105.06079102 122.72460938 C109.61771215 129.85138714 114.19650479 136.96337685 118.81445312 144.05078125 C121.89518229 148.79036458 121.89518229 148.79036458 123 151 C90.8064284 154.77240079 90.8064284 154.77240079 81.96972656 149.03125 C77.05674675 143.63758474 74.32111638 137.13514016 71.54833984 130.45703125 C68.92599628 124.60203522 65.37040471 119.36295071 61.875 114 C60.65973195 112.06521333 59.44855395 110.12784942 58.2421875 108.1875 C56.66226339 105.6522083 55.07824965 103.12162231 53.46191406 100.609375 C53.00268555 99.89265625 52.54345703 99.1759375 52.0703125 98.4375 C51.66828613 97.81746094 51.26625977 97.19742188 50.85205078 96.55859375 C50 95 50 95 50 93 C44.39 93 38.78 93 33 93 C33 112.14 33 131.28 33 151 C22.11 151 11.22 151 0 151 C0 101.17 0 51.34 0 0 Z " fill="#FDFDFD" transform="translate(821,432)"/>
<path d="M0 0 C75.9581117 0 75.9581117 0 88.375 6.5625 C89.37249268 7.08021973 89.37249268 7.08021973 90.39013672 7.60839844 C101.7892382 13.86858353 108.04971943 24.27081935 112.13671875 36.36328125 C115.41840238 50.18793041 113.01449277 65.76110758 105.8125 77.9375 C100.40651366 85.69994193 93.75376675 91.40597381 85 95 C84.23179932 95.32323242 83.46359863 95.64646484 82.67211914 95.97949219 C72.46714877 99.87686781 61.54495309 99.2381471 50.8125 99.125 C42.4903125 99.063125 42.4903125 99.063125 34 99 C34 116.16 34 133.32 34 151 C22.78 151 11.56 151 0 151 C0 101.17 0 51.34 0 0 Z " fill="#FDFDFD" transform="translate(552,432)"/>
<path d="M0 0 C10.56 0 21.12 0 32 0 C32 19.8 32 39.6 32 60 C50.81 60 69.62 60 89 60 C89 40.2 89 20.4 89 0 C99.89 0 110.78 0 122 0 C122 49.83 122 99.66 122 151 C111.11 151 100.22 151 89 151 C89 130.54 89 110.08 89 89 C70.19 89 51.38 89 32 89 C32 109.46 32 129.92 32 151 C21.44 151 10.88 151 0 151 C0 101.17 0 51.34 0 0 Z " fill="#FDFDFD" transform="translate(253,432)"/>
<path d="M0 0 C32.67 0 65.34 0 99 0 C99 9.24 99 18.48 99 28 C76.89 28 54.78 28 32 28 C32 38.89 32 49.78 32 61 C50.48 61 68.96 61 88 61 C88 69.91 88 78.82 88 88 C69.52 88 51.04 88 32 88 C32 99.88 32 111.76 32 124 C54.44 124 76.88 124 100 124 C100 132.91 100 141.82 100 151 C67 151 34 151 0 151 C0 101.17 0 51.34 0 0 Z " fill="#FDFDFD" transform="translate(691,432)"/>
<path d="M0 0 C32.34 0 64.68 0 98 0 C98 9.24 98 18.48 98 28 C76.22 28 54.44 28 32 28 C32 40.21 32 52.42 32 65 C50.81 65 69.62 65 89 65 C89 74.24 89 83.48 89 93 C70.19 93 51.38 93 32 93 C32 112.14 32 131.28 32 151 C21.44 151 10.88 151 0 151 C0 101.17 0 51.34 0 0 Z " fill="#0047FD" transform="translate(968,432)"/>
<path d="M0 0 C12.21 0 24.42 0 37 0 C39.5678125 4.7334375 39.5678125 4.7334375 42.1875 9.5625 C47.71604563 19.72332007 53.37666143 29.80537056 59.08984375 39.86328125 C59.81856689 41.15032959 59.81856689 41.15032959 60.56201172 42.46337891 C61.53316989 44.17650852 62.50887466 45.88706751 63.48876953 47.59521484 C64.17688721 48.80685303 64.17688721 48.80685303 64.87890625 50.04296875 C65.28826416 50.75864014 65.69762207 51.47431152 66.11938477 52.21166992 C67 54 67 54 67 56 C67.66 56 68.32 56 69 56 C69.25523437 55.14535156 69.51046875 54.29070312 69.7734375 53.41015625 C71.05743906 49.84030477 72.72171537 46.69795882 74.625 43.4375 C75.42342125 42.04515637 76.22014399 40.65183805 77.015625 39.2578125 C77.47388672 38.45504883 77.93214844 37.65228516 78.40429688 36.82519531 C82.14452768 30.20310981 85.78566235 23.52495903 89.44805908 16.85958862 C90.47240792 14.99580742 91.49787636 13.13264557 92.5234375 11.26953125 C93.12075684 10.18260986 93.71807617 9.09568848 94.33349609 7.97583008 C94.88344238 6.99380615 95.43338867 6.01178223 96 5 C96.39372803 4.05576172 96.78745605 3.11152344 97.19311523 2.13867188 C99 0 99 0 102.73706055 -0.56762695 C104.28717207 -0.56683644 105.83742544 -0.53864584 107.38671875 -0.48828125 C108.20372757 -0.48120651 109.02073639 -0.47413177 109.86250305 -0.46684265 C112.47176737 -0.43885512 115.0788846 -0.37611306 117.6875 -0.3125 C119.45634921 -0.28742256 121.22523207 -0.26460842 122.99414062 -0.24414062 C127.33025424 -0.18901471 131.66476315 -0.10271575 136 0 C131.94842256 8.41589835 127.48116074 16.46185969 122.625 24.4375 C121.9637915 25.5320752 121.30258301 26.62665039 120.62133789 27.75439453 C116.73082776 34.18577295 112.81485859 40.60087198 108.80859375 46.9609375 C107.76048571 48.7221212 106.73750661 50.49980648 105.78457642 52.31425476 C103.19492574 57.2410992 100.47541929 61.85330376 97.18334961 66.34545898 C84.97195494 83.52789729 83.89920631 97.47360565 84.50646973 117.84814453 C84.61835224 122.2698195 84.61400295 126.69291411 84.63051605 131.11577606 C84.66761282 137.74887487 84.84648841 144.36402449 85 151 C74.11 151 63.22 151 52 151 C52.1134375 146.77703125 52.226875 142.5540625 52.34375 138.203125 C54.15966492 97.88065014 54.15966492 97.88065014 37.11352539 62.63134766 C33.21013874 57.77161549 30.17024581 52.35428016 27 47 C26.35651611 45.92572754 25.71303223 44.85145508 25.05004883 43.74462891 C23.08639074 40.46027824 21.13493472 37.16899345 19.1875 33.875 C18.84638184 33.29848694 18.50526367 32.72197388 18.15380859 32.12799072 C13.57711054 24.3918895 9.01768141 16.64574482 4.5 8.875 C4.03746826 8.08206543 3.57493652 7.28913086 3.09838867 6.47216797 C0 1.11947394 0 1.11947394 0 0 Z " fill="#FCFCFC" transform="translate(396,432)"/>
<path d="M0 0 C41.58 0 83.16 0 126 0 C126 9.24 126 18.48 126 28 C110.82 28 95.64 28 80 28 C80 68.59 80 109.18 80 151 C69.44 151 58.88 151 48 151 C48 110.41 48 69.82 48 28 C32.16 28 16.32 28 0 28 C0 18.76 0 9.52 0 0 Z " fill="#0047FD" transform="translate(1154,432)"/>
<path d="M0 0 C10.56 0 21.12 0 32 0 C32 49.83 32 99.66 32 151 C21.44 151 10.88 151 0 151 C0 101.17 0 51.34 0 0 Z " fill="#0047FC" transform="translate(1094,432)"/>
<path d="M0 0 C3.8775 -0.061875 7.755 -0.12375 11.75 -0.1875 C13.5438916 -0.22846802 13.5438916 -0.22846802 15.37402344 -0.27026367 C23.33679836 -0.33082452 32.91156596 -0.36666884 39.33300781 4.92114258 C45.17592416 11.07712725 45.24298707 16.85033791 45.15234375 25.05859375 C44.83822719 31.12345972 43.40637197 35.59362803 39 40 C33.15507344 43.48208391 28.10254772 44.12832214 21.38671875 44.09765625 C19.70002075 44.09390991 19.70002075 44.09390991 17.97924805 44.09008789 C16.56297119 44.08098389 15.14669434 44.07187988 13.6875 44.0625 C9.170625 44.041875 4.65375 44.02125 0 44 C0 29.48 0 14.96 0 0 Z " fill="#000000" transform="translate(586,460)"/>
<path d="M0 0 C6.373125 -0.061875 6.373125 -0.061875 12.875 -0.125 C14.1935498 -0.14320801 15.51209961 -0.16141602 16.87060547 -0.18017578 C35.36821411 -0.2664182 35.36821411 -0.2664182 42 5 C47.26173352 10.562404 48.42946067 16.07632216 48.25 23.53515625 C47.75531115 28.41247913 46.22200658 31.7440488 42.75 35.3125 C37.17802924 38.73166388 31.5079449 39.29223573 25.09765625 39.1953125 C24.13514954 39.19229126 24.13514954 39.19229126 23.15319824 39.18920898 C20.78955791 39.17885993 18.42602066 39.1509387 16.0625 39.125 C10.761875 39.08375 5.46125 39.0425 0 39 C0 26.13 0 13.26 0 0 Z " fill="#020202" transform="translate(854,460)"/>
</svg>
